<?xml version="1.0" encoding="utf-8"?>
<!-- Generator: Adobe Illustrator 27.5.0, SVG Export Plug-In . SVG Version: 6.00 Build 0)  -->
<svg version="1.1" xmlns="http://www.w3.org/2000/svg" xmlns:xlink="http://www.w3.org/1999/xlink" x="0px" y="0px"
	 viewBox="0 0 750 500" style="enable-background:new 0 0 750 500;" xml:space="preserve">
<g id="OBJECTS">
	<path style="fill:#FFF1E8;" d="M117.973,290.428c-21.119-10.742-34.928-34.446-33.856-58.115
		c1.071-23.645,15.431-44.594,31.458-62.01c40.48-43.988,94.549-74.21,151.792-91.439C324.61,61.636,385.045,56.912,444.79,58.935
		c47.134,1.596,94.846,7.516,138.269,25.918c43.423,18.403,82.47,50.491,101.666,93.569s15.504,97.512-15.426,133.113
		c-36.602,42.129-100.717,49.087-155.007,36.163c-54.29-12.924-103.208-41.939-155.394-61.714
		c-42.893-16.253-92.015-26.661-137.262-14.116C186.538,281.599,156.479,310.013,117.973,290.428z"/>
	<g>
		<path style="fill:#B2704C;" d="M132.486,268.623c-0.14,0-0.26-0.106-0.275-0.248c-0.904-8.71-1.454-17.571-1.638-26.334
			c-0.003-0.153,0.118-0.279,0.271-0.282c0.001,0,0.003,0,0.005,0c0.15,0,0.273,0.12,0.276,0.27
			c0.182,8.748,0.732,17.593,1.635,26.289c0.015,0.151-0.095,0.287-0.247,0.303C132.504,268.623,132.495,268.623,132.486,268.623z"
			/>
		<path style="fill:#B2704C;" d="M132.285,266.856c-0.057,0-0.114-0.017-0.164-0.054c-2.244-1.65-3.223-4.438-3.887-6.948
			c-1.53-5.792-2.099-11.76-1.693-17.738c0.01-0.152,0.155-0.259,0.293-0.257c0.152,0.01,0.268,0.142,0.257,0.294
			c-0.401,5.918,0.163,11.825,1.677,17.56c0.638,2.416,1.574,5.096,3.68,6.644c0.123,0.091,0.149,0.263,0.058,0.386
			C132.453,266.818,132.369,266.856,132.285,266.856z"/>
		<g>
			<g>
				<g>
					<path d="M106.86,415.362c-9.408,6.912-25.253,4.674-25.103,13.229c20.727,2.202,31.16-2.784,31.16-2.784l0.049,2.75
						l7.232-0.915c0,0,2.802-6.976,0.862-12.63L106.86,415.362z"/>
					<path style="fill:#EFAD9C;" d="M106.86,415.362c4.731,2.863,9.465,2.679,14.201-0.349c0,0,3.947-82.799,10.674-150.995
						l0.935-29.714l-29.108,0.463C103.562,234.767,95.55,300.948,106.86,415.362z"/>
				</g>
				<g>
					<path style="fill:#CBA088;" d="M102.234,238.73c0,0-5.046,82.104,0,167.225h23.227c1.158-51.402,3.392-98.263,7.41-137.599
						l-0.885-29.626H102.234z"/>
					<path style="fill:#B2704C;" d="M101.654,406.712c-0.004-0.596-0.033-1.192-0.085-1.786c-0.04-0.456,0.302-0.851,0.76-0.854
						c7.741-0.055,15.519-0.117,23.26-0.171c0.441-0.003,0.794,0.359,0.78,0.8c-0.024,0.759-0.046,1.521-0.07,2.279
						c-0.014,0.425-0.365,0.758-0.79,0.75c-7.647-0.142-15.435-0.307-23.083-0.243C101.995,407.49,101.658,407.143,101.654,406.712z
						"/>
					<path style="fill:#B2704C;" d="M119.807,400.924c-0.004,0-0.009,0-0.014,0c-0.152-0.008-0.27-0.137-0.262-0.29l6.452-131.997
						c0.007-0.151,0.127-0.258,0.289-0.262c0.153,0.008,0.271,0.137,0.263,0.289l-6.452,131.997
						C120.076,400.809,119.954,400.924,119.807,400.924z"/>
				</g>
			</g>
			<g>
				<g>
					<path d="M188.333,406.916c-6.806,9.485-22.566,12.262-19.775,20.35c20.391-4.322,28.768-12.293,28.768-12.293l0.897,2.6
						l6.594-3.109c0,0,0.505-7.5-3.089-12.276L188.333,406.916z"/>
					<path style="fill:#EFAD9C;" d="M170.41,329.23c-1.67-25.648-3.271-57.353-4.414-95.439l-32.19,0.512l-0.935,29.714
						c0.672-0.023,6.485,29.374,13.556,64.696c1.146,5.722,3.197,11.222,6.08,16.296c11.535,20.299,23.906,41.399,35.826,61.907
						c5.344,1.308,9.769-0.399,13.395-4.728C201.728,402.188,191.865,382.988,170.41,329.23z"/>
				</g>
				<g>
					<path style="fill:#CBA088;" d="M131.735,264.018c0,0,11.371,60.94,14.87,71.069c3.499,10.129,33.654,63.656,33.654,63.656
						l19.673-10.687l-27.434-61.099l-6.09-88.33l-34.421,0.103L131.735,264.018z"/>
					<path style="fill:#B2704C;" d="M179.782,400.932c-0.309-0.51-0.639-1.007-0.988-1.49c-0.268-0.371-0.176-0.886,0.215-1.123
						c6.62-4.013,13.268-8.051,19.888-12.064c0.377-0.229,0.866-0.098,1.079,0.288c0.368,0.664,0.74,1.329,1.107,1.993
						c0.206,0.372,0.075,0.838-0.294,1.049c-6.64,3.796-13.413,7.644-19.948,11.617C180.473,401.426,180.005,401.3,179.782,400.932z
						"/>
					<g>
						<path style="fill:#B2704C;" d="M194.169,385.58c-0.098,0-0.193-0.053-0.243-0.146c-9.869-18.314-26.174-57.221-26.337-57.612
							c-0.013-0.03-0.02-0.063-0.022-0.095c-0.608-14.571-1.456-29.13-2.275-43.211c-0.821-14.085-1.669-28.648-2.277-43.224
							c-0.006-0.152,0.112-0.281,0.264-0.287c0.004,0,0.009,0,0.012,0c0.148,0,0.27,0.116,0.276,0.265
							c0.608,14.572,1.456,29.133,2.276,43.215c0.819,14.066,1.666,28.611,2.274,43.17c0.646,1.542,16.592,39.51,26.294,57.519
							c0.072,0.134,0.023,0.301-0.112,0.373C194.258,385.569,194.213,385.58,194.169,385.58z"/>
						<path style="fill:#B2704C;" d="M164.3,263.546c-0.083,0-0.165-0.038-0.219-0.109c-4.775-6.245-7.123-14.319-6.443-22.15
							c0.014-0.151,0.14-0.258,0.299-0.251c0.152,0.013,0.264,0.147,0.251,0.299c-0.669,7.696,1.639,15.629,6.33,21.768
							c0.093,0.121,0.07,0.294-0.052,0.386C164.418,263.527,164.359,263.546,164.3,263.546z"/>
					</g>
				</g>
			</g>
		</g>
		<g>
			<path style="fill:#5B3D31;" d="M153.652,75.493c-1.698-3.863-5.965-6.611-9.994-5.748c-4.571-7.435-16.39-8.354-23.817-5.231
				c-9.195,3.865-13.825,14.867-8.315,23.627c5.584,8.878,16.997,11.657,22.455,20.572c1.191,1.945,2.687,4.133,5.254,4.084
				c2.363-0.045,3.867-2.16,5.08-3.908c3.439-4.957,6.135-10.423,8.075-16.132C154.236,87.322,156.093,81.048,153.652,75.493z"/>
			<path style="fill:#EFAD9C;" d="M143.191,77.31c-6.337-11.617-28.63-7.652-30.363,1.584c-3.564,18.999-0.858,26.798,4.422,31.287
				c6.111,5.194,10.099,4.532,10.099,15.445c2.31,5.808,11.177,6.601,14.037,0c-0.176-14.455,4.785-25.411,4.785-25.411
				S145.804,82.1,143.191,77.31z"/>
			<path style="fill:#5B3D31;" d="M111.371,84.559c0,0-1.667-4.168,3.438-11.121c3.265-4.447,12.761-5.545,20.858-4.048
				c8.097,1.496,11.617,5.016,11.881,10.825c0.264,5.809,0.854,13.062,0.854,13.062l-3.143,2.397
				c-4.928-3.288-4.444-15.788-4.444-15.788c-0.963,1.366-1.617,2.925-1.501,4.593C130.194,85.903,119.285,85.64,111.371,84.559z"/>
			<g>
				<g>
					<path d="M129.574,95.22c0,0.789-0.64,1.429-1.429,1.429c-0.789,0-1.429-0.64-1.429-1.429c0-0.789,0.64-1.429,1.429-1.429
						C128.934,93.791,129.574,94.431,129.574,95.22z"/>
					<circle style="fill:#FFFFFF;" cx="127.621" cy="94.829" r="0.523"/>
				</g>
				<g>
					<path d="M118.519,95.22c0,0.789-0.64,1.429-1.429,1.429c-0.789,0-1.429-0.64-1.429-1.429c0-0.789,0.64-1.429,1.429-1.429
						C117.879,93.791,118.519,94.431,118.519,95.22z"/>
					<circle style="fill:#FFFFFF;" cx="116.566" cy="94.829" r="0.523"/>
				</g>
				<path style="fill:#5B3D31;" d="M119.475,89.624c-1.795-1.25-4.128-1.178-5.82,0.285c-0.317,0.274-0.372,0.825-0.131,1.182
					c0.246,0.365,0.713,0.425,1.031,0.151c0.694-0.601,1.579-0.872,2.443-0.808c0.436,0.032,0.868,0.149,1.27,0.349
					c0.356,0.177,0.701,0.484,1.1,0.255c0.095-0.054,0.177-0.135,0.242-0.232C119.831,90.476,119.816,89.862,119.475,89.624z"/>
				<path style="fill:#5B3D31;" d="M125.047,89.624c2.058-1.25,4.733-1.178,6.673,0.285c0.363,0.274,0.426,0.825,0.15,1.182
					c-0.282,0.365-0.817,0.425-1.182,0.151c-0.796-0.6-1.811-0.86-2.799-0.794c-0.5,0.033-0.995,0.148-1.457,0.343
					c-0.408,0.171-0.808,0.475-1.263,0.247c-0.109-0.054-0.203-0.135-0.277-0.232C124.639,90.476,124.656,89.862,125.047,89.624z"/>
				<path style="fill:#C16B5B;" d="M122.059,103.347c-0.779,0-1.591-0.171-2.374-0.583c-0.365-0.192-0.506-0.643-0.314-1.008
					c0.192-0.365,0.642-0.505,1.008-0.314c1.891,0.992,3.999-0.028,4.602-0.854c0.243-0.331,0.71-0.406,1.044-0.163
					c0.333,0.244,0.405,0.71,0.163,1.044C125.479,102.439,123.854,103.347,122.059,103.347z"/>
				<path style="fill:#C16B5B;" d="M120.295,99.096c-0.081,0-0.155-0.053-0.179-0.135c-0.354-1.219,0.061-1.633,0.47-1.766
					c0.416-0.133,0.914-0.026,1.48,0.324c0.088,0.054,0.115,0.169,0.061,0.257c-0.055,0.087-0.171,0.113-0.257,0.061
					c-0.467-0.289-0.861-0.386-1.169-0.286c-0.368,0.118-0.444,0.558-0.227,1.306c0.029,0.098-0.028,0.202-0.128,0.231
					C120.33,99.094,120.312,99.096,120.295,99.096z"/>
			</g>
			<g>
				<path style="fill:#EFAD9C;" d="M151.061,100.633c-1.911,2.279-4.926,2.896-6.735,1.38c-1.809-1.517-1.726-4.594,0.185-6.872
					c1.911-2.279,4.926-2.896,6.735-1.38C153.055,95.278,152.972,98.355,151.061,100.633z"/>
				<path style="fill:#C16B5B;" d="M149.999,94.876c-0.812-0.43-1.896-0.41-2.897,0.056c-0.499,0.231-0.861,0.513-1.108,0.861
					c-0.327,0.461-0.417,1.04-0.236,1.51c0.161,0.422,0.498,0.696,0.796,0.938c0.215,0.175,0.419,0.341,0.534,0.538
					c0.176,0.303,0.132,0.729-0.104,0.989c-0.236,0.259-0.654,0.343-0.974,0.196c-0.188-0.087-0.409-0.004-0.496,0.182
					c-0.086,0.187-0.005,0.409,0.182,0.496c0.205,0.095,0.427,0.14,0.65,0.14c0.443,0,0.888-0.18,1.19-0.513
					c0.453-0.5,0.536-1.284,0.196-1.867c-0.183-0.314-0.462-0.541-0.707-0.741c-0.246-0.201-0.479-0.39-0.57-0.627
					c-0.091-0.237-0.033-0.555,0.149-0.811c0.073-0.103,0.173-0.196,0.283-0.286c0.371-0.003,0.835,0.111,1.07,0.367
					c0.264,0.29,0.389,0.708,0.325,1.094c-0.034,0.203,0.104,0.395,0.308,0.429c0.02,0.004,0.041,0.005,0.061,0.005
					c0.179,0,0.338-0.13,0.368-0.313c0.102-0.615-0.089-1.257-0.511-1.719c-0.157-0.171-0.353-0.287-0.559-0.382
					c0.618-0.167,1.227-0.133,1.7,0.116c0.584,0.309,1.025,1.106,0.725,1.755c-0.086,0.188-0.004,0.409,0.182,0.496
					c0.188,0.086,0.408,0.005,0.496-0.182C151.49,96.659,151.007,95.41,149.999,94.876z"/>
			</g>
		</g>
		<g>
			<g>
				<g>
					<g>
						<path style="fill:#EFAD9C;" d="M105.145,186.238c19.368-29.391,21.27-47.133,21.27-47.133l-26.705,19.502
							c-2.685,8.12-6.676,16.346-11.225,24.196l-45.023,27.861l5.127,10.342l44.296-23.605
							C97.837,194.76,102.059,190.923,105.145,186.238z"/>
					</g>
					<path style="fill:#EFAD9C;" d="M44.385,223.85c-1.709,1.894-3.658,3.57-5.786,4.977c-0.263,0.174-0.536,0.347-0.844,0.416
						c-0.308,0.069-0.662,0.016-0.88-0.212c-0.403-0.42-0.148-1.111,0.141-1.616c0.78-1.37,1.59-2.807,2.574-4.039
						c-1.971,1.364-3.943,2.728-5.969,4.01c-0.327,0.207-0.665,0.416-1.045,0.489s-0.817-0.018-1.055-0.323
						c-0.229-0.293-0.224-0.718-0.083-1.063c0.141-0.345,0.397-0.628,0.648-0.903c1.508-1.653,3.051-3.276,4.559-4.928
						c-2.505,1.345-5.021,2.696-7.701,3.645c-0.315,0.112-0.64,0.219-0.974,0.207c-0.334-0.011-0.683-0.166-0.838-0.461
						c-0.148-0.283-0.091-0.639,0.068-0.916s0.405-0.492,0.649-0.698c2.331-1.972,4.83-3.703,7.507-5.171
						c-2.458,0.823-4.998,1.402-7.57,1.725c-0.504,0.063-1.113,0.073-1.405-0.342c-0.238-0.338-0.136-0.827,0.126-1.146
						c0.262-0.319,0.647-0.508,1.021-0.683c4.234-1.981,8.687-3.493,13.251-4.502c-1.6-1.104-3.194-2.362-4.036-4.114
						c-0.261-0.544-0.373-1.32,0.135-1.645c0.359-0.229,0.829-0.093,1.231,0.05c1.707,0.607,3.414,1.215,5.121,1.822
						c1.623,0.578,3.258,1.16,4.744,2.032c1.486,0.871,2.833,2.059,3.621,3.591c0.936,1.819,0.988,4.103-0.001,5.894
						c-0.666,1.205-1.753,2.142-2.967,2.789C47.413,223.384,45.736,223.587,44.385,223.85z"/>
				</g>
				<path style="fill:#FF6F5F;" d="M100.791,145.557c-3.072,10.747-8.341,27.372-13.731,36.095l-34.742,21.64l7.391,13.468
					c0,0,36.95-19.085,41.791-23.606c4.841-4.521,30.951-46.692,24.066-62.491l-12.5-0.379l0,0
					C107.088,133.521,102.66,139.02,100.791,145.557z"/>
			</g>
			<g>
				<path style="fill:#FF6F5F;" d="M155.575,130.285l-13.566-4.454c-0.053-1.428,0.111-2.864,0.513-4.243
					c0.109-0.375,0.228-0.8,0.007-1.13c-0.181-0.269-0.548-0.388-0.889-0.379c-0.341,0.009-0.668,0.123-0.99,0.226
					c-4.098,1.305-8.592,0.947-12.844,0.174c-0.399-0.073-0.807-0.149-1.21-0.095c-0.403,0.055-0.806,0.268-0.955,0.62
					c-0.102,0.241-0.144,0.525-0.045,0.766c0.548,1.322,0.667,2.757,0.814,4.09c-4.665,1.103-9.116,2.571-13.342,4.424
					c0,0-7.338,61.231-10.833,108.445c44.975,9.509,64.174-0.103,64.174-0.103C163.735,183.033,155.575,130.285,155.575,130.285z"/>
				<path style="fill:#BC312E;" d="M107.4,182.07c-0.003,0-0.006,0-0.009,0c-0.153-0.005-0.273-0.133-0.268-0.285
					c0.272-8.184,1.379-16.473,2.449-24.489c0.318-2.387,0.636-4.771,0.934-7.153c0.018-0.151,0.147-0.265,0.309-0.24
					c0.151,0.019,0.259,0.157,0.24,0.308c-0.298,2.383-0.616,4.769-0.935,7.158c-1.068,8.003-2.173,16.278-2.443,24.434
					C107.671,181.952,107.549,182.07,107.4,182.07z"/>
			</g>
			<g>
				<g>
					<rect x="91.354" y="219.936" style="fill:#43689A;" width="66.105" height="42.691"/>
					<rect x="91.354" y="238.73" style="fill:#29517C;" width="66.445" height="2.552"/>
					<rect x="101.064" y="237.781" style="fill:#FFF0E7;" width="2.923" height="5.149"/>

						<rect x="145.166" y="237.781" transform="matrix(-1 -1.224647e-16 1.224647e-16 -1 293.2541 480.711)" style="fill:#FFF0E7;" width="2.923" height="5.149"/>
				</g>
				<g>
					<g>
						<g>
							<path style="fill:#EFAD9C;" d="M186.755,190.345c-8.023-36.527-20.542-51.885-20.542-51.885l-4.451,33.048
								c4.083,7.658,5.664,10.976,8.224,19.817l-44.338,17.975l3.356,11.245l49.867-16.453
								C184.624,202.195,188.054,196.261,186.755,190.345z"/>
						</g>
						<path style="fill:#EFAD9C;" d="M125.659,209.314c0,0-9.727,6.249-11.268,8.133s-5.676,12.593-4.937,12.9
							c0.739,0.306,5.729-8.582,5.729-8.582s-2.367,10.736-1.231,10.929s3.927-9.421,3.927-9.421s-0.047,8.007,0.784,8.169
							c0.831,0.162,2.63-8.783,2.63-8.783s0.02,8.861,1.195,8.673c1.175-0.188,2.002-9.81,2.002-9.81s7.493,1.304,10.235-10.087
							L125.659,209.314z"/>
					</g>
					<g>
						<path style="fill:#FF6F5F;" d="M155.575,130.285l3.303,39.506c0,0,6.679,7.816,9.805,20.321l-35.811,15.347l4.833,13.074
							l40.198-13.364c7.89-2.623,12.317-10.969,10.098-18.982C182.676,166.956,171.531,134.822,155.575,130.285z"/>
						<g>
							<path style="fill:#BC312E;" d="M134.524,204.623c-0.106,0-0.207-0.062-0.252-0.165c-0.061-0.14,0.001-0.303,0.141-0.364
								c8.425-3.708,17.051-7.291,25.637-10.649c0.14-0.056,0.302,0.014,0.357,0.157c0.056,0.142-0.014,0.302-0.156,0.358
								c-8.579,3.355-17.197,6.936-25.616,10.641C134.599,204.615,134.561,204.623,134.524,204.623z"/>
							<path style="fill:#BC312E;" d="M139.15,217.923c-0.12,0-0.231-0.079-0.265-0.2c-0.042-0.147,0.042-0.3,0.189-0.342
								c7.486-2.154,14.977-4.63,22.265-7.358c0.143-0.055,0.302,0.019,0.356,0.162c0.053,0.142-0.019,0.301-0.162,0.355
								c-7.302,2.732-14.806,5.213-22.306,7.371C139.2,217.92,139.174,217.923,139.15,217.923z"/>
							<path style="fill:#BC312E;" d="M159.652,170.566c-0.09,0-0.177-0.044-0.231-0.124c-3.871-5.855-6.94-12.206-9.124-18.877
								c-0.047-0.145,0.031-0.301,0.176-0.348c0.151-0.047,0.302,0.032,0.348,0.177c2.169,6.624,5.218,12.93,9.062,18.744
								c0.084,0.127,0.049,0.298-0.079,0.382C159.758,170.552,159.705,170.566,159.652,170.566z"/>
						</g>
					</g>
				</g>
			</g>
		</g>
	</g>
	<g>
		<g>
			<g>
				<g>
					<path style="fill:#FFB681;" d="M266.034,415.763c4.935,2.424,7.824,2.373,11.608-0.333c-2.253-39.479,1.15-69.533-3.199-84.87
						c3.294-17.594,4.431-42.345,4.901-62.82L278.02,238.9l-28.988,2.596C249.031,241.496,246.065,305.812,266.034,415.763z"/>
					<g>
						<path d="M276.78,427.692c0,0-15.121,3.057-35.845,0.923c-0.099-5.364,6.462-6.361,13.665-8.196
							c3.955-1.008,8.097-2.274,11.433-4.656l11.608-0.333c0.088,0.247,0.166,0.493,0.232,0.74
							C279.332,421.513,276.78,427.692,276.78,427.692z"/>
						<path style="fill:#FFB681;" d="M277.874,416.171c-4.43,1.931-13.84,6.909-19.219,6.748c-3.137-0.097-4.01-1.277-4.054-2.5
							c3.955-1.008,8.097-2.274,11.433-4.656c5.001-0.76,7.172-0.954,11.608-0.333C277.73,415.678,277.808,415.924,277.874,416.171z
							"/>
					</g>
				</g>
				<g>
					<path style="fill:#FFB681;" d="M297.195,415.763c4.935,2.424,9.588,4.196,11.608-0.333c0.232-38.735,4.755-69.785-2.232-86.865
						c4.069-19.278,3.603-40.548,4.069-60.825l-1.325-28.841l-28.988,2.596C280.327,241.496,277.226,305.812,297.195,415.763z"/>
					<g>
						<path d="M307.942,427.692c0,0-15.121,3.057-35.845,0.923c-0.099-5.364,6.462-6.361,13.665-8.196
							c3.955-1.008,8.097-2.274,11.433-4.656l11.608-0.333c0.088,0.247,0.166,0.493,0.232,0.74
							C310.493,421.513,307.942,427.692,307.942,427.692z"/>
						<path style="fill:#FFB681;" d="M309.035,416.171c-4.43,1.931-13.84,6.909-19.219,6.748c-3.137-0.097-4.01-1.277-4.054-2.5
							c3.955-1.008,8.097-2.274,11.433-4.656c5.001-0.76,7.172-0.954,11.608-0.333C308.892,415.678,308.969,415.924,309.035,416.171
							z"/>
					</g>
				</g>
			</g>
			<g>
				<path style="fill:#414258;" d="M249.002,237.974c0,0-3.445,37.819,1.285,80.385c0,0,15.46,3.368,50.144,0l2.834-33.992
					l2.838,33.686c0,0,3.772-0.359,6.616-1.404c0,0,1.886-54.343,0-81.591L249.002,237.974z"/>
				<path style="fill:#28293A;" d="M303.158,281.845c-0.001,0-0.003,0-0.004,0c-0.152-0.002-0.274-0.125-0.272-0.272l0.638-39.007
					c0.002-0.147,0.125-0.264,0.276-0.264c0.001,0,0.003,0,0.004,0c0.152,0.003,0.274,0.124,0.272,0.272l-0.638,39.007
					C303.432,281.728,303.309,281.845,303.158,281.845z"/>
			</g>
		</g>
		<g>
			<path style="fill:#1B1B28;" d="M289.42,80.31c-4.087-4.401-10.096-6.951-16.1-6.833s-11.909,2.902-15.82,7.459
				c-4.418,5.148-6.147,12.119-6.509,18.893c-0.363,6.774,0.497,13.551,0.578,20.334c0.026,2.151-0.038,4.359-0.837,6.356
				c-0.8,1.997-2.481,3.768-4.606,4.105c2.739,6.061,8.152,10.149,14.414,12.39c6.262,2.241,13.07,2.519,19.702,2.02
				c6.102-0.459,12.227-1.579,17.781-4.146c5.555-2.566,10.529-6.676,13.368-12.097c-1.814-0.1-3.258-1.186-4.357-2.632
				c-1.099-1.446-1.729-3.189-2.252-4.929c-2.891-9.617-2.962-19.82-4.331-29.768c-0.399-2.897-0.954-5.889-2.657-8.266
				C296.091,80.822,292.164,79.302,289.42,80.31z"/>
			<g>
				<g>
					<g>
						<path style="fill:#8C4A44;" d="M313.208,237.769c-0.673-13.197-7.018-24.092-9.618-43.246
							c-0.627-4.586-0.383-10.992,0.104-16.841c0.658-7.92,1.752-14.825,1.763-14.898c0.001-0.001,0.001-0.002,0.002-0.003
							c-1.061-13.989-1.609-23.93-1.428-23.998c-3.118-2.717-9.868-4.331-15.493-4.319h-0.855c-4.629-0.595-13.753-0.2-16.403,0.32
							c-1.158,0.165-2.323,0.364-3.46,0.605l-3.488,0.872c-2.674,0.782-4.775,1.696-5.438,2.522
							c-1.257,1.76-1.996,7.234-2.74,16.482c-2.848,5.464-6.152,14.367-1.551,22.167c0,0.003-0.001,0.005-0.001,0.008
							c0.002,0,0.004,0.001,0.006,0.001c0.588,0.995,1.293,1.973,2.156,2.923c0,0,0.116,0.652,0.279,1.778
							c0.511,3.492,1.474,11.486,0.813,18.008c-0.792,7.821-7.236,24.676-9.078,38.935
							C266.37,245.041,293.726,244.255,313.208,237.769z"/>
					</g>
					<g>
						<path style="fill:#FFFFFF;" d="M271.279,134.784c0,0-1.693,4.663,1.475,7.917c0,0,1.829-3.769,6.527-3.805
							c0,0-4.404-0.233-6.32-4.487L271.279,134.784z"/>
						<path style="fill:#FFFFFF;" d="M287.939,134.464c0,0,1.037,4.983-2.132,8.236c0,0-1.829-3.769-6.527-3.805
							c0,0,5.801-0.254,7.717-4.509L287.939,134.464z"/>
					</g>
				</g>
				<g>
					<g>
						<g>
							<path style="fill:#FFB681;" d="M326.581,196.31c-6.968-41.692-22.55-57.527-22.55-57.527l-2.333,10.018
								c-2.308,9.91-1.5,20.262,2.304,29.727c2.489,6.193,4.926,12.561,5.837,15.389l-42.607-12.504l-3.365,10.013l46.647,17.588
								C319.131,212.262,328.061,205.169,326.581,196.31z"/>
						</g>
						<g>
							<path style="fill:#8C4A44;" d="M326.581,196.31c-6.968-41.692-22.55-57.527-22.55-57.527l-3.005,9.514
								c-2.308,9.91-0.828,20.766,2.976,30.231c2.489,6.193,4.926,12.561,5.837,15.389l-35.422-10.395
								c-0.902,2.782-1.9,5.535-2.728,8.339c-0.223,0.756-0.422,1.518-0.618,2.281l39.444,14.872
								C319.131,212.262,328.061,205.169,326.581,196.31z"/>
							<polygon style="fill:#FFFFFF;" points="274.417,183.521 272.66,188.777 269.892,189.679 272.313,182.904 							"/>
						</g>
					</g>
					<g>
						<g>
							<path style="fill:#FFB681;" d="M237.436,197.514c5.877-33.642,21.458-58.731,21.458-58.731l1.142,40.02
								c-2.339,4.979-4.294,10.365-5.927,15.918l42.269-13.542l3.623,9.927l-46.477,18.845
								C244.991,213.411,235.89,206.366,237.436,197.514z"/>
							<path style="fill:#FFB681;" d="M296.377,181.179c0,0,5.199-2.116,8.684,0l4.779,12.738L300,191.106L296.377,181.179z"/>
						</g>
						<g>
							<path style="fill:#8C4A44;" d="M287.233,184.108l-33.125,10.613c1.633-5.553,3.588-10.939,5.927-15.918
								c0.636-14.79,0.551-28.55-1.142-40.02c0,0-16.425,14.799-21.458,58.731c-1.022,8.924,7.555,15.898,16.087,12.438
								l37.223-15.093L287.233,184.108z"/>
							<polygon style="fill:#FFFFFF;" points="287.233,184.108 289.433,183.404 293.068,193.917 290.746,194.858 							"/>
						</g>
					</g>
				</g>
				<g>
					<path style="fill:#6D2F2C;" d="M256.478,180.6c-0.084,0-0.167-0.038-0.222-0.108c-2.741-3.588-4.279-8.024-4.332-12.492
						c-0.051-4.438,1.364-8.875,3.986-12.508c-0.113-2.092-0.017-4.27,0.286-6.476c0.019-0.147,0.148-0.256,0.311-0.23
						c0.151,0.019,0.257,0.154,0.237,0.301c-0.303,2.206-0.397,4.382-0.277,6.469c0.003,0.06-0.015,0.12-0.051,0.17
						c-2.59,3.555-3.989,7.912-3.94,12.268c0.051,4.356,1.551,8.681,4.225,12.179c0.091,0.119,0.065,0.287-0.057,0.375
						C256.594,180.582,256.535,180.6,256.478,180.6z"/>
					<path style="fill:#6D2F2C;" d="M302.898,175.737c-0.115,0-0.223-0.071-0.262-0.183c-0.907-2.621-1.883-5.167-2.824-7.63
						c-1.791-4.677-3.481-9.096-4.774-14.017c-0.038-0.144,0.052-0.29,0.2-0.326c0.146-0.038,0.299,0.05,0.336,0.193
						c1.286,4.894,2.971,9.299,4.755,13.963c0.945,2.467,1.92,5.018,2.832,7.646c0.048,0.14-0.029,0.292-0.174,0.339
						C302.958,175.732,302.927,175.737,302.898,175.737z"/>
				</g>
				<path style="fill:#FFB681;" d="M267.233,181.413c0,0-10.294-0.365-13.869,1.17c-2.226,0.955-11.353,7.642-10.877,8.267
					c0.475,0.625,9.332-4.277,9.332-4.277s-7.559,7.751-6.685,8.48c0.874,0.729,8.22-5.876,8.22-5.876s-4.165,6.641-3.536,7.191
					c0.629,0.55,6.779-5.995,6.779-5.995s-4.548,7.385-3.444,7.816c1.104,0.431,6.77-7.163,6.77-7.163s3.013,2.667,10.915-2.559
					L267.233,181.413z"/>
			</g>
			<g>
				<path style="fill:#FFB681;" d="M288.803,86.092c-6.337-11.617-28.63-7.652-30.363,1.584
					c-3.564,18.999-0.858,26.798,4.422,31.287c6.111,5.194,10.099,4.532,10.099,15.445c2.31,5.809,11.177,6.601,14.037,0
					c-0.176-14.455,4.785-25.411,4.785-25.411S291.415,90.882,288.803,86.092z"/>
				<path style="fill:#1B1B28;" d="M286.426,88.666c-3.828,5.519-11.529,4.246-11.529,4.246l4.444-3.828
					c0,0-11.001,6.513-22.359,4.256c0,0-1.667-4.168,3.438-11.121c3.265-4.447,12.761-5.544,20.858-4.048
					c8.097,1.496,11.617,5.017,11.881,10.825c0.264,5.809,0.854,13.062,0.854,13.062l-3.143,2.397
					C285.942,101.167,286.426,88.666,286.426,88.666z"/>
				<g>
					<g>
						<circle cx="273.756" cy="104.002" r="1.429"/>
						<circle style="fill:#FFFFFF;" cx="273.232" cy="103.611" r="0.523"/>
					</g>
					<g>
						<path d="M264.13,104.002c0,0.789-0.64,1.429-1.429,1.429c-0.789,0-1.429-0.64-1.429-1.429c0-0.789,0.64-1.429,1.429-1.429
							C263.49,102.573,264.13,103.213,264.13,104.002z"/>
						<path style="fill:#FFFFFF;" d="M262.701,103.611c0,0.289-0.234,0.523-0.523,0.523s-0.523-0.234-0.523-0.523
							s0.234-0.523,0.523-0.523S262.701,103.322,262.701,103.611z"/>
					</g>
					<path style="fill:#1B1B28;" d="M265.086,98.406c-1.795-1.25-4.128-1.178-5.82,0.285c-0.317,0.274-0.372,0.825-0.131,1.182
						c0.246,0.364,0.713,0.425,1.031,0.151c0.694-0.601,1.579-0.872,2.443-0.808c0.436,0.032,0.868,0.149,1.27,0.349
						c0.356,0.177,0.701,0.484,1.1,0.255c0.095-0.054,0.177-0.135,0.242-0.232C265.442,99.257,265.427,98.643,265.086,98.406z"/>
					<path style="fill:#1B1B28;" d="M270.658,98.406c2.058-1.25,4.733-1.178,6.673,0.285c0.363,0.274,0.426,0.825,0.15,1.182
						c-0.282,0.364-0.817,0.425-1.181,0.151c-0.796-0.6-1.811-0.86-2.799-0.794c-0.5,0.033-0.995,0.148-1.457,0.343
						c-0.408,0.172-0.808,0.475-1.263,0.247c-0.109-0.054-0.203-0.135-0.277-0.232C270.25,99.257,270.267,98.643,270.658,98.406z"/>
					<path style="fill:#DD8950;" d="M267.67,112.128c-0.78,0-1.591-0.171-2.374-0.583c-0.365-0.192-0.506-0.643-0.314-1.008
						c0.192-0.365,0.642-0.505,1.008-0.314c1.891,0.992,3.999-0.028,4.602-0.854c0.243-0.331,0.71-0.406,1.043-0.163
						c0.333,0.244,0.406,0.71,0.163,1.044C271.09,111.221,269.466,112.128,267.67,112.128z"/>
					<path style="fill:#DD8950;" d="M265.906,107.878c-0.081,0-0.155-0.053-0.179-0.135c-0.354-1.219,0.06-1.633,0.47-1.766
						c0.416-0.133,0.914-0.026,1.48,0.324c0.087,0.054,0.115,0.169,0.061,0.257c-0.055,0.087-0.171,0.113-0.257,0.061
						c-0.467-0.289-0.861-0.386-1.168-0.286c-0.368,0.118-0.444,0.558-0.227,1.306c0.029,0.098-0.028,0.202-0.128,0.231
						C265.941,107.876,265.923,107.878,265.906,107.878z"/>
				</g>
				<g>
					<path style="fill:#FFB681;" d="M296.672,109.415c-1.911,2.279-4.926,2.896-6.735,1.38c-1.809-1.517-1.726-4.594,0.185-6.872
						c1.911-2.279,4.927-2.896,6.735-1.38C298.666,104.059,298.583,107.136,296.672,109.415z"/>
					<path style="fill:#DD8950;" d="M295.61,103.657c-0.812-0.43-1.896-0.41-2.897,0.056c-0.499,0.231-0.861,0.513-1.108,0.861
						c-0.327,0.461-0.417,1.04-0.236,1.51c0.161,0.422,0.498,0.696,0.796,0.939c0.215,0.175,0.419,0.341,0.534,0.538
						c0.176,0.304,0.132,0.729-0.104,0.989c-0.236,0.26-0.654,0.343-0.974,0.196c-0.188-0.087-0.409-0.004-0.496,0.182
						c-0.086,0.187-0.005,0.409,0.182,0.496c0.205,0.095,0.427,0.14,0.651,0.14c0.443,0,0.888-0.18,1.189-0.513
						c0.454-0.5,0.536-1.284,0.196-1.867c-0.183-0.314-0.462-0.541-0.707-0.741c-0.246-0.201-0.479-0.39-0.569-0.627
						c-0.091-0.237-0.033-0.555,0.149-0.811c0.073-0.103,0.173-0.196,0.283-0.286c0.371-0.003,0.835,0.111,1.07,0.367
						c0.264,0.289,0.389,0.708,0.325,1.094c-0.034,0.203,0.104,0.395,0.308,0.429c0.021,0.004,0.041,0.005,0.061,0.005
						c0.179,0,0.338-0.13,0.368-0.313c0.102-0.615-0.089-1.257-0.511-1.719c-0.157-0.171-0.353-0.287-0.559-0.382
						c0.618-0.166,1.227-0.133,1.7,0.116c0.584,0.309,1.025,1.106,0.725,1.755c-0.086,0.188-0.004,0.409,0.182,0.496
						c0.188,0.086,0.408,0.005,0.496-0.182C297.101,105.441,296.618,104.191,295.61,103.657z"/>
				</g>
				<path style="fill:#8C4A44;" d="M293.958,112.345c0,1.081-0.876,1.958-1.958,1.958c-1.081,0-1.958-0.877-1.958-1.958
					s0.877-1.958,1.958-1.958C293.081,110.388,293.958,111.264,293.958,112.345z"/>
			</g>
		</g>
	</g>
	<g>
		<g>
			<g>
				<g>
					<path style="fill:#43689A;" d="M509.335,424.405c0.442,1.933,0.961,3.237,0.961,3.237s17.708,3.148,38.432,0.95
						c0-0.806-0.066-1.524-0.177-2.176c-1.856-9.975-17.211-3.049-24.921-11.058l-14.195-0.342
						C508.33,418.23,508.76,421.865,509.335,424.405z"/>
					<path style="fill:#29517C;" d="M509.335,424.405c0.442,1.933,0.961,3.237,0.961,3.237s17.708,3.148,38.432,0.95
						c0-0.806-0.066-1.524-0.177-2.176C535.471,427.587,522.227,426.902,509.335,424.405z"/>
					<g>
						<path style="fill:#FFF0E7;" d="M528.097,420.476c0.179-0.41,0.434-0.783,0.734-1.115c0.092-0.102,0.256-0.162,0.391-0.162
							c0.135,0,0.297,0.06,0.391,0.162c0.096,0.105,0.168,0.243,0.162,0.391c-0.007,0.151-0.06,0.278-0.162,0.39
							c-0.039,0.043-0.076,0.089-0.113,0.134c-0.177,0.235-0.33,0.487-0.448,0.757c-0.052,0.118-0.212,0.221-0.33,0.254
							c-0.132,0.036-0.308,0.02-0.426-0.056c-0.118-0.076-0.222-0.189-0.254-0.33c-0.007-0.049-0.013-0.098-0.02-0.147
							C528.022,420.655,528.047,420.562,528.097,420.476z"/>
						<path style="fill:#FFF0E7;" d="M525.942,419.93c0.182-0.554,0.476-1.056,0.87-1.485c0.196-0.213,0.585-0.214,0.781,0
							c0.209,0.228,0.209,0.554,0,0.781c-0.043,0.046-0.082,0.096-0.122,0.144c-0.162,0.216-0.299,0.45-0.406,0.698
							c-0.02,0.052-0.041,0.103-0.058,0.156c-0.045,0.136-0.128,0.257-0.254,0.33c-0.118,0.069-0.293,0.099-0.426,0.056
							c-0.133-0.043-0.262-0.126-0.33-0.254C525.93,420.228,525.895,420.072,525.942,419.93z"/>
						<path style="fill:#FFF0E7;" d="M523.772,419.055c0.115-0.283,0.241-0.56,0.394-0.825c0.153-0.264,0.33-0.51,0.517-0.751
							c0.08-0.104,0.266-0.162,0.39-0.162c0.136,0,0.297,0.06,0.391,0.162c0.097,0.105,0.168,0.243,0.162,0.391
							c-0.006,0.049-0.013,0.098-0.02,0.147c-0.026,0.093-0.074,0.174-0.142,0.243c0.024-0.031,0.048-0.062,0.072-0.093
							c-0.295,0.383-0.539,0.802-0.727,1.247c0.008-0.02,0.017-0.04,0.025-0.06c-0.056,0.136-0.118,0.246-0.251,0.324
							c-0.118,0.069-0.293,0.099-0.426,0.056c-0.134-0.043-0.263-0.126-0.33-0.254C523.763,419.359,523.717,419.19,523.772,419.055z
							"/>
					</g>
				</g>
				<g>
					<path style="fill:#424242;" d="M461.544,237.675l38.08-5.526l4.793,27.808c0,0,13.222,87.076,21.209,154.315
						c-4.874,2.86-14.898,2.727-18.149,0.744C507.477,415.016,483.441,285.419,461.544,237.675z"/>
					<path style="fill:#242428;" d="M509.761,409.925c-0.133,0-0.249-0.095-0.272-0.23c-8.768-51.809-20.699-103.65-35.463-154.084
						c-0.042-0.147,0.041-0.3,0.188-0.342c0.145-0.042,0.299,0.04,0.343,0.187c14.77,50.455,26.705,102.318,35.476,154.147
						c0.026,0.151-0.076,0.293-0.225,0.318C509.791,409.924,509.776,409.925,509.761,409.925z"/>
					<path style="fill:#242428;" d="M502.914,265.985c-0.07,0-0.14-0.027-0.194-0.08c-5.884-5.796-9.758-13.493-10.909-21.672
						c-0.021-0.151,0.084-0.291,0.235-0.312c0.148-0.021,0.291,0.084,0.313,0.235c1.133,8.059,4.951,15.643,10.749,21.356
						c0.108,0.107,0.11,0.282,0.002,0.391C503.056,265.958,502.985,265.985,502.914,265.985z"/>
				</g>
			</g>
			<g>
				<g>
					<path style="fill:#43689A;" d="M455.677,424.405c-0.442,1.933-0.961,3.237-0.961,3.237s-17.708,3.148-38.432,0.95
						c0-0.806,0.066-1.524,0.177-2.176c1.856-9.975,17.211-3.049,24.922-11.058l14.195-0.342
						C456.682,418.23,456.251,421.865,455.677,424.405z"/>
					<path style="fill:#29517C;" d="M455.677,424.405c-0.442,1.933-0.961,3.237-0.961,3.237s-17.708,3.148-38.432,0.95
						c0-0.806,0.066-1.524,0.177-2.176C429.54,427.587,442.785,426.902,455.677,424.405z"/>
					<g>
						<path style="fill:#FFF0E7;" d="M436.915,420.476c-0.179-0.41-0.434-0.783-0.733-1.115c-0.092-0.102-0.256-0.162-0.391-0.162
							c-0.135,0-0.297,0.06-0.391,0.162c-0.096,0.105-0.168,0.243-0.162,0.391c0.007,0.151,0.06,0.278,0.162,0.39
							c0.039,0.043,0.076,0.089,0.113,0.134c0.177,0.235,0.33,0.487,0.448,0.757c0.052,0.118,0.212,0.221,0.33,0.254
							c0.132,0.036,0.308,0.02,0.426-0.056c0.118-0.076,0.222-0.189,0.254-0.33c0.007-0.049,0.013-0.098,0.02-0.147
							C436.99,420.655,436.965,420.562,436.915,420.476z"/>
						<path style="fill:#FFF0E7;" d="M439.07,419.93c-0.182-0.554-0.476-1.056-0.87-1.485c-0.196-0.213-0.585-0.214-0.781,0
							c-0.209,0.228-0.209,0.554,0,0.781c0.043,0.046,0.082,0.096,0.122,0.144c0.162,0.216,0.299,0.45,0.406,0.698
							c0.02,0.052,0.041,0.103,0.058,0.156c0.045,0.136,0.128,0.257,0.254,0.33c0.118,0.069,0.293,0.099,0.426,0.056
							c0.134-0.043,0.263-0.126,0.33-0.254C439.082,420.228,439.116,420.072,439.07,419.93z"/>
						<path style="fill:#FFF0E7;" d="M441.24,419.055c-0.115-0.283-0.241-0.56-0.394-0.825c-0.153-0.264-0.33-0.51-0.517-0.751
							c-0.081-0.104-0.267-0.162-0.391-0.162c-0.136,0-0.297,0.06-0.391,0.162c-0.097,0.105-0.168,0.243-0.162,0.391
							c0.007,0.049,0.013,0.098,0.02,0.147c0.026,0.093,0.074,0.174,0.142,0.243c-0.024-0.031-0.048-0.062-0.072-0.093
							c0.295,0.383,0.539,0.802,0.727,1.247c-0.008-0.02-0.017-0.04-0.025-0.06c0.056,0.136,0.118,0.246,0.25,0.324
							c0.118,0.069,0.293,0.099,0.426,0.056c0.134-0.043,0.263-0.126,0.33-0.254C441.249,419.359,441.295,419.19,441.24,419.055z"/>
					</g>
				</g>
				<g>
					<path style="fill:#424242;" d="M438.176,415.016c4.731,2.863,14.512,2.569,19.247-0.459c0,0-0.175-104.798,11.419-149.104
						l7.898-32.173l-38.656,1.487C438.084,234.767,426.866,300.601,438.176,415.016z"/>
					<path style="fill:#242428;" d="M454.224,410.502c-0.15,0-0.273-0.12-0.276-0.27c-1.319-56.744,2.658-107.31,12.158-154.587
						c0.029-0.149,0.168-0.25,0.325-0.216c0.15,0.03,0.247,0.176,0.217,0.325c-9.492,47.236-13.465,97.762-12.147,154.465
						c0.003,0.152-0.118,0.279-0.27,0.283C454.228,410.502,454.226,410.502,454.224,410.502z"/>
					<path style="fill:#242428;" d="M436.54,268.079c-0.072,0-0.146-0.028-0.2-0.085c-0.106-0.11-0.101-0.285,0.009-0.39
						c6.082-5.819,9.051-14.6,7.749-22.917c-0.024-0.15,0.08-0.292,0.23-0.316c0.164-0.019,0.292,0.08,0.316,0.23
						c1.33,8.492-1.702,17.459-7.913,23.401C436.677,268.053,436.609,268.079,436.54,268.079z"/>
				</g>
			</g>
		</g>
		<g>
			<g>
				<g>
					<g>
						<path style="fill:#9C6955;" d="M424.983,192.378c26.229-26.658,32.265-45.53,32.265-45.53l-30.121,14.307
							c-4.189,7.6-6.106,10.737-12.117,17.707l-39.26-27.342l-7.038,8.298l40.45,33.457
							C413.89,197.059,420.735,196.695,424.983,192.378z"/>
					</g>
					<g>
						<path style="fill:#9C6955;" d="M376.132,159.111c-1.35,1.537-3.417,2.477-5.449,2.245c-1.368-0.156-2.648-0.804-3.709-1.68
							c-1.061-0.876-1.888-2.35-2.647-3.498c-2.402-0.858-4.695-2.021-6.807-3.452c-0.261-0.177-0.525-0.363-0.707-0.622
							c-0.181-0.258-0.267-0.606-0.14-0.895c0.235-0.533,0.97-0.56,1.548-0.486c1.564,0.199,3.202,0.4,4.715,0.84
							c-2.012-1.303-4.025-2.605-5.983-3.989c-0.316-0.223-0.638-0.456-0.85-0.78c-0.212-0.324-0.294-0.762-0.104-1.099
							c0.184-0.324,0.579-0.481,0.951-0.482c0.372-0.001,0.732,0.128,1.082,0.255c2.103,0.764,4.191,1.572,6.294,2.337
							c-2.198-1.803-4.406-3.614-6.306-5.73c-0.223-0.249-0.446-0.509-0.563-0.822c-0.117-0.313-0.107-0.694,0.107-0.951
							c0.205-0.245,0.556-0.327,0.873-0.286c0.317,0.041,0.609,0.187,0.893,0.334c2.711,1.404,5.265,3.054,7.642,4.97
							c-1.698-1.959-3.201-4.086-4.48-6.341c-0.251-0.442-0.492-1.001-0.22-1.429c0.221-0.349,0.713-0.441,1.108-0.32
							c0.395,0.12,0.716,0.404,1.02,0.683c3.445,3.159,6.877,6.53,9.549,10.366C376.082,151.34,378.952,155.901,376.132,159.111z"/>
						<g>

								<rect x="342.798" y="113.364" transform="matrix(0.7366 0.6763 -0.6763 0.7366 187.6097 -207.3584)" style="fill:#43689A;" width="34.44" height="47.633"/>

								<rect x="345.169" y="115.647" transform="matrix(0.7366 0.6763 -0.6763 0.7366 187.6102 -207.3586)" style="fill:#FFFFFF;" width="29.699" height="43.067"/>

								<rect x="368.281" y="118.455" transform="matrix(0.7366 0.6763 -0.6763 0.7366 180.3398 -222.1618)" style="fill:#414258;" width="14.211" height="3.977"/>
						</g>
						<g>
							<path style="fill:#9C6955;" d="M374.188,150.837c-1.135-1.534-2.291-3.079-3.743-4.285c-0.396-0.329-0.835-0.641-1.338-0.71
								s-1.081,0.178-1.254,0.679c-0.177,0.511,0.107,1.056,0.381,1.515c1,1.674,2,3.349,3,5.024
								C372.263,152.425,373.28,151.652,374.188,150.837z"/>
							<path style="fill:#824938;" d="M370.765,156.938c-0.049,0-0.096-0.026-0.121-0.072c-0.799-1.451-0.682-3.327,0.292-4.667
								c0.046-0.061,0.134-0.074,0.193-0.03c0.061,0.045,0.076,0.131,0.031,0.193c-0.899,1.235-1.012,3.033-0.275,4.371
								c0.037,0.066,0.013,0.15-0.054,0.187C370.81,156.933,370.788,156.938,370.765,156.938z"/>
						</g>
					</g>
				</g>
				<path style="fill:#AAC184;" d="M447.591,130.286c-11.05,4.335-21.687,27.511-32.432,45.795l-27.908-18.238l-8.559,12.856
					c0,0,30.135,27.128,39.359,26.419c9.224-0.71,25.624-24.296,25.624-24.296C445.99,155.797,448.559,138.055,447.591,130.286z"/>
			</g>
			<g>
				<g>
					<path style="fill:#FFFDF0;" d="M502.703,236.445c0.133,2.563-1.502,4.905-3.977,5.623c-7.976,2.309-27.385,6.032-58.294,0.254
						c-2.795-0.519-4.739-3.071-4.507-5.91c3.69-46.595,11.665-106.126,11.665-106.126l7.998-2.607l6.285-2.055h14.04l6.22,2.044
						c0.011,0,0.011,0.011,0.011,0.011l7.954,2.607C490.099,130.286,499.742,182.316,502.703,236.445z"/>
				</g>
				<polygon style="fill:#8C4A44;" points="468.85,132.486 464.621,135.844 467.501,138.707 462.397,180.185 469.378,192.925
					475.303,179.988 469.833,138.905 472.735,135.35 				"/>
				<g>
					<g>
						<path style="fill:#AAC184;" d="M461.872,125.627c0,0-6.27,98.154-6.282,121.938c0,0-13.7-0.595-22.465-8.027l14.465-109.252
							L461.872,125.627z"/>
						<path style="fill:#86A052;" d="M449.336,223.952c-4.091,0-8.191-1.436-11.372-4.007c-0.119-0.096-0.137-0.27-0.041-0.388
							c0.095-0.118,0.271-0.137,0.388-0.041c3.305,2.671,7.634,4.076,11.879,3.862c0.145-0.028,0.283,0.109,0.29,0.262
							c0.008,0.152-0.11,0.282-0.262,0.29C449.925,223.945,449.631,223.952,449.336,223.952z"/>
					</g>
					<g>
						<path style="fill:#AAC184;" d="M475.909,125.627l6.399,121.938c0,0,12.996-1.429,22.805-6.56c0,0-9.66-90.57-15.014-110.72
							L475.909,125.627z"/>
						<path style="fill:#86A052;" d="M488.329,223.373c-0.811,0-1.624-0.045-2.431-0.134c-0.152-0.017-0.261-0.154-0.244-0.305
							c0.016-0.151,0.159-0.265,0.304-0.244c4.614,0.514,9.371-0.495,13.384-2.84c0.128-0.077,0.3-0.033,0.378,0.099
							c0.077,0.132,0.032,0.301-0.099,0.378C496.209,222.321,492.274,223.373,488.329,223.373z"/>
					</g>
				</g>
			</g>
			<path style="fill:#86A052;" d="M441.628,174.689c-0.011,0-0.021,0-0.032-0.002c-0.151-0.018-0.26-0.155-0.242-0.306
				c0.682-5.873,1.556-11.322,2.4-16.592c0.673-4.194,1.309-8.155,1.85-12.289c0.019-0.151,0.152-0.257,0.31-0.238
				c0.151,0.02,0.258,0.159,0.238,0.31c-0.543,4.142-1.179,8.107-1.852,12.304c-0.845,5.264-1.717,10.707-2.398,16.568
				C441.886,174.586,441.766,174.689,441.628,174.689z"/>
			<g>
				<g>
					<path style="fill:#9C6955;" d="M517.832,191.189c-8.618-31.7-19.93-52.366-19.93-52.366l-2.963,34.034l1.524,5.117
						l-24.048-19.492l-7.03,8.186l35.942,34.491C508.705,208.059,520.482,200.936,517.832,191.189z"/>
					<path style="fill:#9C6955;" d="M475.119,162.034c0,0-6.342-9.337-10.057-11.471c-2.312-1.329-14.313-4.927-14.573-4.089
						c-0.26,0.837,9.941,5.388,9.941,5.388s-11.953-1.502-12.049-0.243c-0.096,1.259,10.675,3.337,10.675,3.337
						s-8.741,0.755-8.834,1.677c-0.093,0.923,9.848,1.986,9.848,1.986s-9.667,0.913-9.343,2.176
						c0.324,1.263,10.906,1.198,10.906,1.198s-0.472,4.442,9.405,7.933L475.119,162.034z"/>
				</g>
				<g>
					<path style="fill:#AAC184;" d="M490.099,130.286l3.671,42.618l2.694,5.327l-14.681-12.699l-7.593,10.318
						c0,0,24.334,27.96,30.924,29.105c6.59,1.145,13.267-2.289,14.03-9.921C519.906,187.403,507.032,141.659,490.099,130.286z"/>
					<g>
						<path style="fill:#86A052;" d="M504.503,184.486c-0.061,0-0.124-0.021-0.176-0.063l-22.037-18.157
							c-0.118-0.097-0.134-0.271-0.038-0.389c0.098-0.116,0.271-0.136,0.39-0.037l22.037,18.157
							c0.118,0.097,0.134,0.271,0.038,0.389C504.662,184.451,504.583,184.486,504.503,184.486z"/>
						<path style="fill:#86A052;" d="M499.341,202.102c-0.065,0-0.129-0.023-0.181-0.068c-6.992-6.102-13.538-12.821-19.456-19.972
							c-0.097-0.117-0.081-0.291,0.037-0.388c0.118-0.097,0.292-0.081,0.388,0.037c5.9,7.127,12.424,13.825,19.393,19.907
							c0.115,0.1,0.127,0.275,0.027,0.39C499.494,202.07,499.418,202.102,499.341,202.102z"/>
						<path style="fill:#86A052;" d="M495.723,177.339c-0.099,0-0.196-0.054-0.245-0.149c-2.773-5.355-4.761-11.07-5.91-16.988
							c-0.029-0.15,0.068-0.295,0.218-0.324c0.156-0.03,0.296,0.069,0.324,0.218c1.139,5.866,3.11,11.532,5.858,16.84
							c0.07,0.135,0.017,0.302-0.118,0.372C495.809,177.329,495.766,177.339,495.723,177.339z"/>
					</g>
				</g>
			</g>
		</g>
		<g>
			<path style="fill:#1B1B28;" d="M480.578,108.888c-1.329,1.749-2.976,3.864-5.564,3.908c-2.811,0.049-4.45-2.14-5.754-4.084
				c-5.978-8.915-16.964-9.755-23.079-18.633c-1.709-1.005-4.646-1.938-5.032-6.045c-0.2-2.124,0.82-5.062,2.632-6.406
				c-1.519-2.183-1.552-5.062-0.31-7.386c1.242-2.324,3.863-3.985,6.682-4.234c0.679-2.246,2.507-4.354,4.957-5.006
				c2.45-0.652,5.25-0.066,7.144,1.495c1.747-2.053,4.706-3.078,7.537-2.799c2.831,0.28,5.446,1.973,6.672,4.32
				c2.41-0.374,4.969,0.586,6.741,2.124c1.771,1.538,2.688,3.859,2.399,6.076c1.85,0.847,3.133,2.532,3.708,4.348
				c0.575,1.815,0.283,3.845-0.787,5.463c1.683,0.959,2.702,2.704,2.857,4.51c0.155,1.806-0.678,3.66-2.177,4.847
				c1.64,1.268,2.532,3.393,2.27,5.341c-0.261,1.948-1.653,3.739-3.58,4.608c0.481,1.729-0.196,3.745-1.397,5.152
				C485.297,107.895,482.531,108.892,480.578,108.888z"/>
			<path style="fill:#9C6955;" d="M477.713,77.31c-6.337-11.617-28.63-7.652-30.363,1.584c-3.564,18.999-0.858,26.798,4.422,31.287
				c6.111,5.194,10.099,4.532,10.099,15.445c2.31,5.808,11.177,6.601,14.037,0c-0.176-14.455,4.785-25.411,4.785-25.411
				S480.326,82.1,477.713,77.31z"/>
			<path style="fill:#1B1B28;" d="M475.337,79.885c-1.417,2.042-3.364,3.155-5.254,3.745c-2.001,0.626-3.419-1.959-1.83-3.327l0,0
				c0,0-11.001,6.513-22.359,4.256c0,0-1.667-4.168,3.438-11.121c3.265-4.447,12.761-5.545,20.858-4.048
				c8.097,1.496,11.617,5.016,11.881,10.825c0.264,5.809,0.854,13.062,0.854,13.062l-3.143,2.397
				C474.853,92.385,475.337,79.885,475.337,79.885z"/>
			<g>
				<g>
					<path d="M464.096,95.22c0,0.789-0.64,1.429-1.429,1.429c-0.789,0-1.429-0.64-1.429-1.429c0-0.789,0.64-1.429,1.429-1.429
						C463.456,93.791,464.096,94.431,464.096,95.22z"/>
					<circle style="fill:#FFFFFF;" cx="462.143" cy="94.829" r="0.523"/>
				</g>
				<g>
					<path d="M453.041,95.22c0,0.789-0.64,1.429-1.429,1.429c-0.789,0-1.429-0.64-1.429-1.429c0-0.789,0.64-1.429,1.429-1.429
						C452.401,93.791,453.041,94.431,453.041,95.22z"/>
					<circle style="fill:#FFFFFF;" cx="451.088" cy="94.829" r="0.523"/>
				</g>
				<path style="fill:#1B1B28;" d="M453.997,89.624c-1.795-1.25-4.128-1.178-5.82,0.285c-0.317,0.274-0.372,0.825-0.131,1.182
					c0.246,0.365,0.713,0.425,1.031,0.151c0.694-0.601,1.579-0.872,2.443-0.808c0.436,0.032,0.868,0.149,1.27,0.349
					c0.355,0.177,0.701,0.484,1.1,0.255c0.095-0.054,0.177-0.135,0.242-0.232C454.353,90.476,454.338,89.862,453.997,89.624z"/>
				<path style="fill:#1B1B28;" d="M459.569,89.624c2.058-1.25,4.733-1.178,6.673,0.285c0.363,0.274,0.427,0.825,0.151,1.182
					c-0.282,0.365-0.817,0.425-1.181,0.151c-0.796-0.6-1.811-0.86-2.799-0.794c-0.5,0.033-0.995,0.148-1.457,0.343
					c-0.408,0.171-0.808,0.475-1.263,0.247c-0.109-0.054-0.203-0.135-0.277-0.232C459.161,90.476,459.178,89.862,459.569,89.624z"/>
				<path style="fill:#824938;" d="M456.581,103.347c-0.78,0-1.591-0.171-2.374-0.583c-0.366-0.192-0.506-0.643-0.314-1.008
					c0.192-0.365,0.642-0.505,1.008-0.314c1.891,0.992,3.999-0.028,4.602-0.854c0.243-0.331,0.71-0.406,1.044-0.163
					c0.333,0.244,0.405,0.71,0.163,1.044C460,102.439,458.376,103.347,456.581,103.347z"/>
				<path style="fill:#824938;" d="M454.817,99.096c-0.081,0-0.155-0.053-0.179-0.135c-0.354-1.219,0.061-1.633,0.47-1.766
					c0.416-0.133,0.914-0.026,1.48,0.324c0.087,0.054,0.115,0.169,0.06,0.257c-0.055,0.087-0.171,0.113-0.257,0.061
					c-0.468-0.289-0.861-0.386-1.168-0.286c-0.367,0.118-0.444,0.558-0.227,1.306c0.029,0.098-0.028,0.202-0.128,0.231
					C454.852,99.094,454.833,99.096,454.817,99.096z"/>
			</g>
			<g>
				<path style="fill:#9C6955;" d="M485.583,100.633c-1.911,2.279-4.926,2.896-6.735,1.38c-1.809-1.517-1.726-4.594,0.185-6.872
					c1.911-2.279,4.926-2.896,6.735-1.38C487.577,95.278,487.494,98.355,485.583,100.633z"/>
				<path style="fill:#824938;" d="M484.521,94.876c-0.812-0.43-1.896-0.41-2.897,0.056c-0.499,0.231-0.861,0.513-1.108,0.861
					c-0.327,0.461-0.417,1.04-0.236,1.51c0.161,0.422,0.498,0.696,0.796,0.938c0.215,0.175,0.419,0.341,0.534,0.538
					c0.177,0.303,0.132,0.729-0.104,0.989c-0.236,0.259-0.654,0.343-0.974,0.196c-0.188-0.087-0.409-0.004-0.496,0.182
					c-0.086,0.187-0.005,0.409,0.182,0.496c0.205,0.095,0.427,0.14,0.65,0.14c0.443,0,0.888-0.18,1.19-0.513
					c0.454-0.5,0.536-1.284,0.196-1.867c-0.183-0.314-0.462-0.541-0.707-0.741c-0.246-0.201-0.479-0.39-0.57-0.627
					c-0.091-0.237-0.033-0.555,0.149-0.811c0.073-0.103,0.173-0.196,0.283-0.286c0.371-0.003,0.835,0.111,1.07,0.367
					c0.264,0.29,0.389,0.708,0.325,1.094c-0.034,0.203,0.104,0.395,0.308,0.429c0.02,0.004,0.041,0.005,0.061,0.005
					c0.179,0,0.338-0.13,0.368-0.313c0.102-0.615-0.089-1.257-0.51-1.719c-0.157-0.171-0.353-0.287-0.559-0.382
					c0.618-0.167,1.227-0.133,1.7,0.116c0.584,0.309,1.025,1.106,0.725,1.755c-0.086,0.188-0.004,0.409,0.182,0.496
					c0.187,0.086,0.408,0.005,0.496-0.182C486.011,96.659,485.529,95.41,484.521,94.876z"/>
			</g>
		</g>
	</g>
	<g>
		<g>
			<g>
				<g>
					<g>
						<path d="M676.857,405.665c0,0-11.006,10.572-29.617,19.72c-3.075-4.477,1.884-8.787,6.916-14.142
							c2.762-2.941,5.538-6.199,7.014-9.973l9.573-6.415c0.212,0.162,0.414,0.329,0.608,0.503
							C675.556,399.099,676.857,405.665,676.857,405.665z"/>
						<path style="fill:#FFC3B8;" d="M671.351,395.357c-2.647,3.971-7.781,13.147-12.393,15.854
							c-2.691,1.576-4.083,1.041-4.802,0.031c2.762-2.941,5.538-6.199,7.014-9.973c3.78-3.285,5.497-4.595,9.573-6.415
							C670.955,395.017,671.157,395.184,671.351,395.357z"/>
					</g>
					<path style="fill:#FFC3B8;" d="M661.17,401.27l-5.993-8.317l10.893-7.111l4.673,9.014
						C667.713,397.635,664.561,399.927,661.17,401.27z"/>
				</g>
				<path style="fill:#28293A;" d="M635.158,332.655c0.873-21.094,2.015-43.837,3.487-65.138l2.921-28.975l-34.521-0.341
					c0,0-0.474,35.878,2.656,92.061c0.347,6.223,2.464,12.229,6.116,17.342c12.286,17.201,20.068,27.71,36.915,48.21
					c5.527-0.178,14.105-5.528,16.42-10.525C669.152,385.29,657.962,368.812,635.158,332.655z"/>
			</g>
			<g>
				<g>
					<g>
						<path d="M638.849,427.684c0,0-15.121,3.072-35.845,0.927c-0.099-5.389,6.463-6.391,13.665-8.234
							c3.955-1.013,8.097-2.285,11.433-4.677l11.608-0.334c0.088,0.248,0.166,0.496,0.232,0.744
							C641.401,421.477,638.849,427.684,638.849,427.684z"/>
						<path style="fill:#FFC3B8;" d="M639.943,416.11c-4.43,1.94-13.84,6.94-19.219,6.779c-3.137-0.097-4.01-1.283-4.054-2.511
							c3.955-1.013,8.097-2.285,11.433-4.677c5.001-0.764,7.172-0.958,11.608-0.334C639.799,415.614,639.876,415.862,639.943,416.11
							z"/>
					</g>
					<path style="fill:#FFC3B8;" d="M628.102,415.7l0.203-11.713h13.393l-1.988,11.379
						C635.734,416.395,631.859,416.558,628.102,415.7z"/>
				</g>
				<path style="fill:#414258;" d="M636.529,230.655c0,0-5.612,62.168-9.329,100.141c-0.1,1.021-0.166,2.03-0.199,3.055
					c-0.853,26.471-2.842,47.9-3.21,74.362c5.734,2.901,17.17,1.676,22.267-0.543c0,0,0.322-22.626,4.236-71.499
					c4.962-21.259,10.385-43.535,18.109-72.621c2.812-10.589,3.491-21.616,1.985-32.456l-0.82-5.901L636.529,230.655z"/>
			</g>
			<g>
				<path style="fill:#28293A;" d="M636.917,402.466c-0.006,0-0.013,0-0.019-0.001c-0.152-0.01-0.266-0.139-0.256-0.287
					l5.256-71.523c0.129-0.599,12.52-56.493,19.435-83.864c0.037-0.144,0.188-0.231,0.334-0.197
					c0.149,0.036,0.238,0.182,0.203,0.326c-6.914,27.364-19.304,83.249-19.428,83.81l-5.251,71.485
					C637.183,402.357,637.061,402.466,636.917,402.466z"/>
			</g>
		</g>
		<g>
			<path style="fill:#3C495E;" d="M637.537,70.252c-4.689-0.535-9.568,0.447-13.535,3.003c-5.864,3.78-9.304,10.269-12.493,16.474
				c-1.949,3.792-3.935,8.219-2.284,12.149c1.135,2.702,3.91,4.882,3.723,7.807c-0.16,2.507-2.439,4.26-3.822,6.358
				c-2.196,3.33-2.098,7.825-0.44,11.453c1.658,3.628,4.68,6.479,7.998,8.694c12.075,8.061,29.025,8.025,41.065-0.088
				c2.961-1.995,5.684-4.493,7.307-7.674c1.624-3.18,2.015-7.122,0.416-10.315c-1.408-2.813-4.316-5.26-3.872-8.374
				c0.478-3.345,4.671-5.233,5.067-8.589c0.362-3.068-2.551-5.382-4.211-7.988c-1.347-2.115-1.908-4.618-2.519-7.049
				c-0.611-2.431-0.878-5.492-3.048-7.316c-3.044-2.558-7.712-2.071-7.712-2.071S646.531,71.279,637.537,70.252z"/>
			<g>
				<g>
					<g>
						<g>
							<path style="fill:#FFC3B8;" d="M565.673,172.683c36.346-7.081,60.448-17.357,60.448-17.357l-34.637-6.365
								c-7.628,3.772-16.258,6.721-25.017,9.025l-26.166-39.601l-10.32,5.045l24.558,44.136
								C556.682,171.48,561.211,173.552,565.673,172.683z"/>
						</g>
						<path style="fill:#FFC3B8;" d="M528.612,118.833c-1.804-1.76-3.378-3.742-4.675-5.886c-0.16-0.265-0.319-0.54-0.372-0.843
							c-0.053-0.303,0.018-0.645,0.257-0.847c0.44-0.372,1.117-0.088,1.607,0.218c1.328,0.829,2.722,1.69,3.902,2.71
							c-1.261-1.989-2.523-3.978-3.7-6.016c-0.19-0.329-0.381-0.669-0.435-1.043c-0.053-0.374,0.06-0.795,0.377-1.012
							c0.305-0.209,0.729-0.182,1.066-0.028c0.337,0.155,0.606,0.418,0.868,0.677c1.573,1.552,3.115,3.136,4.689,4.688
							c-1.215-2.507-2.435-5.027-3.247-7.685c-0.095-0.312-0.186-0.635-0.157-0.96c0.029-0.325,0.2-0.657,0.504-0.793
							c0.29-0.131,0.643-0.057,0.911,0.112c0.269,0.169,0.47,0.419,0.664,0.667c1.85,2.37,3.451,4.891,4.781,7.573
							c-0.697-2.436-1.145-4.94-1.336-7.462c-0.037-0.494-0.016-1.088,0.413-1.352c0.349-0.215,0.833-0.091,1.138,0.18
							c0.306,0.271,0.474,0.656,0.63,1.029c1.761,4.224,3.044,8.638,3.818,13.135c1.184-1.504,2.522-2.995,4.315-3.728
							c0.557-0.228,1.337-0.298,1.636,0.214c0.211,0.361,0.05,0.813-0.113,1.197c-0.694,1.633-1.388,3.266-2.082,4.899
							c-0.66,1.553-1.325,3.116-2.272,4.521c-0.946,1.405-2.202,2.657-3.772,3.349c-1.864,0.821-4.149,0.757-5.886-0.295
							c-1.169-0.709-2.049-1.815-2.633-3.031C528.922,121.806,528.806,120.162,528.612,118.833z"/>
					</g>
					<path style="fill:#43689A;" d="M622.069,135.061c-16.22,4.872-36.522,13.435-36.522,13.435l9.041,20.076l21.99-7.357
						L622.069,135.061z"/>
				</g>
				<g>
					<g>
						<g>
							<g>
								<path style="fill:#43689A;" d="M671.168,236.98c-0.237-15.074-6.712-24.305-9.312-43.549
									c-0.627-4.607-0.383-11.043,0.104-16.919c0.658-7.957,1.752-14.894,1.763-14.967c0.001-0.001,0.001-0.002,0.002-0.003
									c-1.061-14.054-1.609-24.041-1.428-24.109c-3.118-2.73-9.868-4.351-15.493-4.339h-0.856
									c-4.629-0.598-13.753-0.201-16.403,0.321c-1.158,0.166-2.323,0.366-3.46,0.608l-3.488,0.876
									c-2.674,0.786-4.775,1.704-5.438,2.534c-1.257,1.768-1.996,7.268-2.74,16.559c-2.848,5.489-6.152,14.434-1.551,22.27
									c0,0.003,0,0.005-0.001,0.008c0.002,0,0.004,0.001,0.006,0.001c0.588,0.999,1.293,1.982,2.156,2.936
									c0,0,0.116,0.655,0.279,1.786c0.511,3.508,1.474,11.54,0.813,18.092c-0.792,7.858-7.236,24.791-9.078,39.116
									C624.637,244.184,651.686,243.497,671.168,236.98z"/>
							</g>
						</g>
					</g>
					<path style="fill:#29517C;" d="M614.838,179.308c-0.082,0-0.164-0.036-0.219-0.105c-2.82-3.563-4.383-8.005-4.399-12.506
						c-0.015-4.473,1.494-8.896,4.254-12.465c0.018-2.424,0.062-4.607,0.38-6.72c0.021-0.147,0.157-0.245,0.313-0.228
						c0.151,0.021,0.256,0.159,0.233,0.306c-0.316,2.105-0.357,4.296-0.374,6.736c0,0.058-0.021,0.115-0.056,0.161
						c-2.721,3.488-4.212,7.824-4.196,12.208c0.016,4.384,1.537,8.709,4.285,12.178c0.093,0.118,0.07,0.287-0.051,0.378
						C614.956,179.289,614.897,179.308,614.838,179.308z"/>
					<g>
						<path style="fill:#FFFFFF;" d="M630.144,133.315c0,0,1.373,5.199,4.141,8.081l5.908-3.823c0,0-4.821-0.184-6.703-4.577
							C632.353,132.983,631.24,133.101,630.144,133.315z"/>
						<path style="fill:#FFFFFF;" d="M650.215,133.272c0,0-1.346,5.243-4.114,8.124l-5.908-3.823c0,0,5.458-0.078,7.34-4.472
							C648.67,133.089,649.119,133.057,650.215,133.272z"/>
					</g>
				</g>
				<g>
					<g>
						<g>
							<rect x="658.235" y="279.828" style="fill:#8C4A44;" width="65.745" height="41.423"/>
							<path style="fill:#6D2F2C;" d="M723.98,300.54c-21.766,11.494-43.68,11.573-65.745,0v-2.476
								c22.14,12.043,44.052,12.034,65.745,0V300.54z"/>
						</g>
						<path style="fill:#FFFFFF;" d="M694.901,304.113h-7.586c-0.67,0-1.214-0.543-1.214-1.214v-0.487
							c0-0.67,0.543-1.214,1.214-1.214h7.586c0.67,0,1.214,0.543,1.214,1.214v0.487C696.115,303.57,695.571,304.113,694.901,304.113
							z"/>
						<path style="fill:#8C4A44;" d="M703.44,282.795h-24.665c-0.607,0-1.099-0.479-1.099-1.072v-10.288
							c0-0.592,0.491-1.072,1.099-1.072h24.665c0.607,0,1.099,0.479,1.099,1.072v10.288
							C704.539,282.316,704.048,282.795,703.44,282.795z M679.874,280.651h22.468v-8.145h-22.468V280.651z"/>
					</g>
					<g>
						<g>
							<g>
								<path style="fill:#FFC3B8;" d="M669.52,146.163c0,0,25.303,29.038,26.556,114.49h-11.612c0,0-1.998-50.413-19.395-82.248
									L669.52,146.163z"/>
								<path style="fill:#FFC3B8;" d="M697.033,271.858c0.713-2.981,0.683-6.133-0.105-9.111c-0.621-2.349-1.746-5.096-3.624-6.766
									c-2.318-2.062-5.46-1.258-8.099-0.345c-0.073,0.025-0.128,0.066-0.182,0.106c-0.283-0.189-0.688-0.192-0.894,0.187
									c-2.22,4.084-3.115,8.78-2.481,13.367c0.109,0.785,0.151,1.986,1.029,2.363c0.893,0.384,1.699-0.332,1.918-1.146
									c0.3-1.11,0.321-2.353,0.467-3.49c0.049-0.383,0.098-0.765,0.147-1.148c0.72,1.98,1.165,4.051,1.302,6.149
									c0.037,0.559,0.571,0.998,1.133,1.116c0.562,0.118,1.182-0.079,1.563-0.498c0.326,0.409,0.832,0.672,1.362,0.703
									c0.53,0.031,1.07-0.169,1.444-0.537c0.393,0.322,0.885,0.474,1.398,0.447s1.012-0.249,1.369-0.61
									c0.336,0.41,0.923,0.564,1.423,0.37C696.704,272.821,696.911,272.369,697.033,271.858z"/>
							</g>
							<g>
								<polygon style="fill:#43689A;" points="683.974,253.375 683.697,250.283 695.799,250.283 695.908,253.375 								"/>
								<path style="fill:#FFFFFF;" d="M692.866,251.829c0,1.54-1.279,2.788-2.857,2.788c-1.578,0-2.858-1.248-2.858-2.788
									s1.279-2.788,2.858-2.788C691.587,249.041,692.866,250.289,692.866,251.829z"/>
							</g>
						</g>
						<g>
							<path style="fill:#43689A;" d="M662.298,137.433c16.188,12.257,20.996,32.146,20.996,32.146l-18.905,11.054l-11.297-22.533
								L662.298,137.433z"/>
							<path style="fill:#29517C;" d="M661.444,174.356c-0.094,0-0.184-0.046-0.236-0.13c-3.042-4.923-5.61-10.155-7.628-15.551
								c-0.053-0.14,0.021-0.295,0.164-0.346c0.142-0.05,0.303,0.022,0.354,0.161c2.008,5.364,4.559,10.565,7.583,15.459
								c0.079,0.127,0.037,0.293-0.094,0.369C661.543,174.343,661.493,174.356,661.444,174.356z"/>
						</g>
					</g>
				</g>
			</g>
			<g>
				<path style="fill:#FFC3B8;" d="M649.332,84.679c-6.337-11.617-28.63-7.652-30.363,1.584
					c-3.565,18.999-0.858,26.798,4.422,31.287c6.111,5.194,10.099,4.532,10.099,15.445c2.31,5.808,11.183,6.666,14.043,0.065
					c-0.176-14.455,4.779-25.476,4.779-25.476S651.944,89.469,649.332,84.679z"/>
				<path style="fill:#3C495E;" d="M647.001,90.398c0.201,3.93,1.052,10.411,4.399,12.644l3.143-2.397c0,0-0.59-7.253-0.854-13.062
					c-0.264-5.808-3.784-9.329-11.881-10.825c-8.097-1.496-17.593-0.399-20.858,4.048c-5.104,6.953-3.438,11.121-3.438,11.121
					c4,0,8.42-0.429,11.703-2.715C634.429,92.256,641.291,92.361,647.001,90.398z"/>
				<g>
					<g>
						<path d="M635.714,102.589c0,0.789-0.64,1.429-1.429,1.429c-0.789,0-1.429-0.64-1.429-1.429c0-0.789,0.64-1.429,1.429-1.429
							C635.074,101.16,635.714,101.8,635.714,102.589z"/>
						<circle style="fill:#FFFFFF;" cx="633.761" cy="102.199" r="0.523"/>
					</g>
					<g>
						<path d="M624.659,102.589c0,0.789-0.64,1.429-1.429,1.429c-0.789,0-1.429-0.64-1.429-1.429c0-0.789,0.64-1.429,1.429-1.429
							C624.019,101.16,624.659,101.8,624.659,102.589z"/>
						<circle style="fill:#FFFFFF;" cx="622.706" cy="102.199" r="0.523"/>
					</g>
					<path style="fill:#3C495E;" d="M625.615,96.993c-1.795-1.25-4.128-1.178-5.82,0.285c-0.317,0.274-0.372,0.825-0.131,1.182
						c0.246,0.364,0.713,0.425,1.03,0.151c0.695-0.601,1.579-0.872,2.443-0.808c0.437,0.032,0.868,0.149,1.27,0.349
						c0.356,0.177,0.701,0.484,1.1,0.255c0.095-0.055,0.177-0.135,0.242-0.232C625.971,97.845,625.956,97.231,625.615,96.993z"/>
					<path style="fill:#3C495E;" d="M631.187,96.993c2.059-1.25,4.733-1.178,6.673,0.285c0.363,0.274,0.427,0.825,0.151,1.182
						c-0.282,0.364-0.817,0.425-1.182,0.151c-0.796-0.6-1.81-0.86-2.799-0.794c-0.5,0.033-0.995,0.149-1.457,0.343
						c-0.408,0.171-0.808,0.475-1.263,0.247c-0.109-0.055-0.203-0.135-0.277-0.232C630.779,97.845,630.796,97.231,631.187,96.993z"
						/>
					<path style="fill:#C17D74;" d="M628.199,110.716c-0.78,0-1.591-0.171-2.374-0.583c-0.366-0.192-0.506-0.643-0.314-1.008
						c0.192-0.365,0.643-0.505,1.008-0.314c1.891,0.992,3.999-0.028,4.602-0.854c0.243-0.331,0.71-0.406,1.044-0.163
						c0.333,0.244,0.406,0.71,0.163,1.044C631.619,109.809,629.995,110.716,628.199,110.716z"/>
					<path style="fill:#C17D74;" d="M626.435,106.465c-0.081,0-0.155-0.053-0.179-0.135c-0.354-1.219,0.061-1.633,0.47-1.766
						c0.416-0.133,0.914-0.026,1.481,0.324c0.087,0.054,0.115,0.169,0.06,0.257c-0.055,0.087-0.171,0.113-0.257,0.06
						c-0.468-0.289-0.861-0.386-1.168-0.286c-0.367,0.118-0.444,0.558-0.227,1.306c0.029,0.099-0.028,0.202-0.128,0.231
						C626.47,106.463,626.452,106.465,626.435,106.465z"/>
				</g>
				<g>
					<path style="fill:#FFC3B8;" d="M657.201,108.002c-1.911,2.279-4.926,2.896-6.735,1.38c-1.809-1.517-1.726-4.594,0.185-6.872
						c1.911-2.279,4.926-2.896,6.735-1.38C659.195,102.647,659.112,105.724,657.201,108.002z"/>
					<path style="fill:#C17D74;" d="M656.139,102.245c-0.812-0.43-1.896-0.41-2.897,0.056c-0.499,0.231-0.86,0.513-1.108,0.861
						c-0.327,0.461-0.417,1.04-0.236,1.51c0.161,0.422,0.498,0.696,0.796,0.938c0.215,0.175,0.419,0.341,0.534,0.538
						c0.176,0.304,0.132,0.729-0.104,0.989c-0.236,0.26-0.654,0.343-0.974,0.196c-0.188-0.087-0.409-0.004-0.496,0.182
						c-0.086,0.187-0.005,0.409,0.182,0.496c0.205,0.095,0.427,0.14,0.651,0.14c0.443,0,0.888-0.18,1.19-0.513
						c0.454-0.5,0.536-1.284,0.196-1.867c-0.183-0.314-0.462-0.541-0.707-0.741c-0.246-0.201-0.479-0.39-0.57-0.627
						c-0.091-0.237-0.033-0.555,0.149-0.811c0.073-0.103,0.173-0.196,0.283-0.286c0.371-0.003,0.835,0.111,1.07,0.367
						c0.264,0.29,0.389,0.708,0.325,1.094c-0.034,0.204,0.104,0.395,0.308,0.429c0.02,0.004,0.041,0.005,0.061,0.005
						c0.179,0,0.338-0.13,0.368-0.313c0.102-0.615-0.089-1.257-0.511-1.719c-0.157-0.171-0.353-0.288-0.559-0.382
						c0.618-0.167,1.227-0.133,1.7,0.116c0.584,0.309,1.025,1.106,0.725,1.755c-0.086,0.188-0.004,0.409,0.182,0.496
						c0.187,0.086,0.408,0.005,0.496-0.182C657.63,104.028,657.147,102.779,656.139,102.245z"/>
				</g>
			</g>
		</g>
	</g>
	<g>
		<g>
			<path style="fill:#FF6F5F;" d="M359.946,390.581c-0.652-8.495,0.838-18.009,6.168-24.655c5.33-6.646,13.245-11.163,21.679-12.371
				C386.498,369.814,380.145,386.698,359.946,390.581z"/>
			<path style="fill:#FF6F5F;" d="M347.918,408.698c-6.399-5.236-10.988-12.643-12.825-20.704
				c-1.838-8.061-0.913-16.725,2.585-24.217c6.621,5.159,11.324,12.74,13.485,20.851
				C353.324,392.738,351.094,400.928,347.918,408.698z"/>
			<path style="fill:#FF6F5F;" d="M355.059,408.871c1.669-7.197,8.245-11.535,15.294-13.748c7.049-2.212,14.714-1.54,21.88,0.255
				c-4.142,5.33-9.629,9.613-15.869,12.186S361.754,409.732,355.059,408.871z"/>
			<path style="fill:#BC312E;" d="M344.553,429.466c-0.014,0-0.027-0.001-0.042-0.004c-0.136-0.022-0.227-0.151-0.204-0.288
				c2.166-12.831,7.378-25.767,15.933-39.545c7.542-12.152,16.735-23.406,25.627-34.29c0.087-0.107,0.243-0.122,0.352-0.035
				c0.107,0.087,0.123,0.244,0.035,0.352c-8.881,10.871-18.064,22.113-25.589,34.237c-8.52,13.723-13.709,26.599-15.865,39.365
				C344.778,429.38,344.673,429.466,344.553,429.466z"/>
			<path style="fill:#BC312E;" d="M348.639,414.007c-0.124,0-0.23-0.091-0.248-0.217c-2.272-16.871-5.775-32.697-10.415-47.037
				c-0.042-0.132,0.03-0.272,0.161-0.315c0.13-0.039,0.272,0.03,0.315,0.161c4.647,14.369,8.158,30.224,10.435,47.125
				c0.018,0.137-0.078,0.263-0.215,0.281C348.661,414.006,348.649,414.007,348.639,414.007z"/>
			<path style="fill:#BC312E;" d="M349.436,411.977c-0.09,0-0.176-0.048-0.221-0.133c-0.064-0.122-0.019-0.273,0.104-0.338
				c13.113-6.935,27.044-12.349,41.406-16.09c0.138-0.03,0.272,0.046,0.306,0.179c0.034,0.134-0.046,0.271-0.179,0.306
				c-14.326,3.73-28.221,9.13-41.299,16.047C349.517,411.967,349.477,411.977,349.436,411.977z"/>
		</g>
		<g>
			<path style="fill:#B2704C;" d="M561.99,428.585c-1.849-5.576-6.036-11.333-10.506-15.145c-1.459-1.244-3.036-2.366-4.303-3.805
				c-1.266-1.439-2.216-3.283-2.095-5.196c0.162-2.559,2.297-4.72,4.764-5.417c2.468-0.697,5.155-0.13,7.448,1.018
				c2.293,1.148,4.263,2.838,6.206,4.51c-0.247-3.857-2.407-7.069-4.418-10.37c-2.01-3.301-4.106-6.73-4.504-10.574
				c-0.399-3.845,1.464-8.226,5.152-9.381c2.714-0.85,5.767,0.267,7.81,2.245c2.043,1.978,3.219,4.688,4.011,7.419
				c0.792,2.731,1.252,5.554,2.137,8.257c-0.256-0.781,0.553-2.673,0.79-3.446c0.354-1.156,0.797-2.285,1.328-3.371
				c1.283-2.625,3.055-6.183,6.337-6.543c2.138-0.234,4.136,1.021,5.044,2.932c0.98,2.062,0.792,4.508,0.117,6.689
				c-0.675,2.181-1.799,4.191-2.685,6.295c-0.886,2.104-1.542,4.396-1.205,6.654c0.872-2.944,2.078-5.738,3.841-8.252
				s4.573-4.499,7.643-4.464c3.07,0.036,6.127,2.634,5.947,5.699c-0.144,2.446-2.09,4.355-3.93,5.973
				c-5.71,5.024-11.931,10.147-14.387,17.345c1.382-2.12,3.257-3.902,5.386-5.269c1.474-0.946,3.423-1.666,4.917-0.752
				c1.67,1.021,1.726,3.508,0.898,5.282c-2.369,5.077-9.42,6.599-11.809,11.667H561.99z"/>
			<g>
				<path style="fill:#8C4A44;" d="M573.158,427.859c-0.131,0-0.241-0.102-0.249-0.234c-1.109-17.656-5.459-34.741-12.928-50.78
					c-0.059-0.125-0.004-0.273,0.121-0.332c0.125-0.058,0.273-0.004,0.332,0.121c7.495,16.096,11.86,33.241,12.973,50.96
					c0.009,0.138-0.096,0.257-0.233,0.265C573.169,427.859,573.163,427.859,573.158,427.859z"/>
				<path style="fill:#8C4A44;" d="M570.045,427.859c-0.115,0-0.218-0.079-0.244-0.196c-2.428-10.961-10.559-20.806-20.716-25.08
					c-0.128-0.054-0.188-0.2-0.134-0.327c0.053-0.128,0.2-0.188,0.327-0.134c10.302,4.336,18.549,14.318,21.011,25.434
					c0.03,0.135-0.056,0.268-0.19,0.298C570.081,427.858,570.063,427.859,570.045,427.859z"/>
				<path style="fill:#8C4A44;" d="M574.69,427.859c-0.006,0-0.012,0-0.018-0.001c-0.138-0.01-0.241-0.129-0.231-0.267
					c0.961-13.561,2.157-30.439,8.081-44.605c0.054-0.127,0.197-0.189,0.327-0.134c0.127,0.053,0.188,0.199,0.134,0.327
					c-5.892,14.09-7.085,30.922-8.044,44.447C574.931,427.759,574.82,427.859,574.69,427.859z"/>
				<path style="fill:#8C4A44;" d="M576.25,427.743c-0.017,0-0.034-0.002-0.052-0.006c-0.136-0.028-0.222-0.161-0.192-0.296
					c2.792-13.104,9.586-25.5,19.128-34.905c0.099-0.096,0.257-0.098,0.354,0.002c0.098,0.099,0.096,0.257-0.002,0.354
					c-9.474,9.338-16.218,21.645-18.991,34.653C576.47,427.663,576.365,427.743,576.25,427.743z"/>
				<path style="fill:#8C4A44;" d="M579.823,427.126c-0.045,0-0.09-0.012-0.131-0.037c-0.118-0.072-0.154-0.227-0.082-0.344
					c2.877-4.678,6.913-8.603,11.672-11.349c0.116-0.068,0.272-0.028,0.342,0.092c0.068,0.12,0.027,0.272-0.092,0.342
					c-4.688,2.704-8.662,6.569-11.496,11.177C579.989,427.084,579.907,427.126,579.823,427.126z"/>
			</g>
		</g>
		<g>
			<path style="fill:#AAC184;" d="M69.691,428.324c-10.197-1.831-18.899-10.219-21.105-20.341c3.35,0.738,6.576,1.238,10.004,1.383
				c-9.726-3.538-16.678-13.496-17.433-23.818c3.504,3.546,7.826,6.464,12.24,8.781c-4.565-2.924-7.959-7.243-9.934-12.291
				c-1.974-5.048-2.307-10.724-0.937-15.969c1.298,4.283,4.052,8.066,7.828,10.468c-6.002-7.011-8.241-16.836-6.248-25.847
				c1.917,4.595,4.458,8.768,7.503,12.707c-1.921-3.464-3.741-7.08-4.452-10.977c-0.712-3.897-0.089-8.228,2.532-11.199
				c1.176-1.333,2.939-2.387,4.671-1.989c1.091,0.251,1.98,1.034,2.72,1.873c2.486,2.819,3.806,6.512,4.355,10.229
				c0.549,3.718,0.38,7.5,0.209,11.254c1.751-3.842,2.721-8.076,2.805-12.298c5.325,6.968,6.465,16.676,3.096,24.772
				c2.488-2.654,3.999-6.043,4.489-9.648c5.684,8.93,5.81,21.113,0.73,30.399c2.923-2.73,5.062-6.342,5.85-10.264
				c2.558,9.231,2.729,18.951,0.585,28.287c-0.646,2.816-1.518,5.615-3.011,8.088C74.695,424.399,72.38,427.268,69.691,428.324z"/>
			<path style="fill:#86A052;" d="M69.054,427.769c-0.12,0-0.227-0.087-0.247-0.209c-4.774-28.765-10.348-57.794-16.564-86.28
				c-0.029-0.136,0.056-0.268,0.191-0.298c0.142-0.029,0.268,0.057,0.298,0.19c6.218,28.495,11.793,57.532,16.569,86.306
				c0.022,0.137-0.07,0.265-0.206,0.288C69.081,427.768,69.067,427.769,69.054,427.769z"/>
		</g>
	</g>
</g>
</svg>
